<svg width="133" height="89" viewBox="0 0 133 89" fill="none" xmlns="http://www.w3.org/2000/svg">
<path d="M66.5 5.5C82.7372 5.5 98.0481 15.4351 109.789 26.2891C115.56 31.6244 120.248 36.9769 123.493 41C124.569 42.3339 125.481 43.5183 126.219 44.5C125.481 45.4817 124.569 46.6661 123.493 48C120.248 52.0231 115.56 57.3756 109.789 62.7109C98.0481 73.5649 82.7372 83.5 66.5 83.5C50.2628 83.5 34.9519 73.5649 23.2109 62.7109C17.4396 57.3756 12.7519 52.0231 9.50684 48C8.4307 46.6659 7.51832 45.4818 6.78027 44.5C7.51832 43.5182 8.4307 42.3341 9.50684 41C12.7519 36.9769 17.4396 31.6244 23.2109 26.2891C34.9519 15.4351 50.2628 5.5 66.5 5.5ZM128.431 47.5605H128.43H128.431Z" fill="#00288E" stroke="#00288E" stroke-width="11"/>
<circle cx="66" cy="44" r="24.5" fill="#00288E" stroke="#D9D9D9" stroke-width="11"/>
<rect x="71.1099" y="3.29858" width="13" height="84.3571" transform="rotate(16.7017 71.1099 3.29858)" fill="#00288E"/>
</svg>
