<svg width="166" height="65" viewBox="0 0 166 65" fill="none" xmlns="http://www.w3.org/2000/svg">
<g filter="url(#filter0_d_159_72)">
<path d="M82.9424 0.5C104.7 0.5 124.377 3.6441 138.596 8.71191C145.707 11.2466 151.427 14.253 155.359 17.5664C159.294 20.8818 161.385 24.4558 161.385 28.1357C161.385 31.8157 159.294 35.3896 155.359 38.7051C151.427 42.0185 145.707 45.0259 138.596 47.5605C124.377 52.6284 104.7 55.7725 82.9424 55.7725C61.185 55.7725 41.509 52.6282 27.29 47.5605C20.1784 45.0259 14.4576 42.0186 10.5254 38.7051C6.59103 35.3896 4.5 31.8157 4.5 28.1357C4.50009 24.4558 6.59097 20.8818 10.5254 17.5664C14.4576 14.2529 20.1784 11.2466 27.29 8.71191C41.509 3.64418 61.185 0.500001 82.9424 0.5Z" fill="#00288E" stroke="#00288E"/>
<path d="M4.00098 28H161.888V28.4219L161.86 29H4.02832L4.00098 28.5V28Z" fill="white"/>
<ellipse cx="82.885" cy="27.2479" rx="59.9201" ry="24.1166" fill="white"/>
<path d="M41.7224 34V20H47.7424C48.769 20 49.649 20.18 50.3824 20.54C51.1157 20.9 51.6757 21.42 52.0624 22.1C52.4491 22.78 52.6424 23.6067 52.6424 24.58C52.6424 25.5533 52.4424 26.4 52.0424 27.12C51.6424 27.8267 51.0757 28.3733 50.3424 28.76C49.6091 29.1467 48.7424 29.34 47.7424 29.34H43.8224L43.8424 34H41.7224ZM43.8424 27.46H47.4824C48.429 27.46 49.1624 27.2267 49.6824 26.76C50.2024 26.28 50.4624 25.5667 50.4624 24.62C50.4624 23.6467 50.2024 22.9467 49.6824 22.52C49.1624 22.0933 48.429 21.88 47.4824 21.88H43.8424V27.46ZM54.8604 34V23.94H56.3604L56.6004 25.22L57.3804 24.68C57.7804 24.4133 58.2137 24.2 58.6804 24.04C59.147 23.8667 59.5937 23.78 60.0204 23.78C60.167 23.78 60.3137 23.8 60.4604 23.84C60.607 23.88 60.747 23.9467 60.8804 24.04V25.64C60.4404 25.6533 60.007 25.7 59.5804 25.78C59.167 25.8467 58.687 26 58.1404 26.24L56.9004 26.72V34H54.8604ZM66.8599 34.14C65.8465 34.14 64.9599 33.92 64.1999 33.48C63.4532 33.04 62.8732 32.4333 62.4599 31.66C62.0465 30.8733 61.8399 29.9733 61.8399 28.96C61.8399 27.9467 62.0465 27.0533 62.4599 26.28C62.8865 25.4933 63.4799 24.88 64.2399 24.44C64.9999 24 65.8799 23.78 66.8799 23.78C67.8932 23.78 68.7732 24.0067 69.5199 24.46C70.2666 24.9 70.8399 25.5133 71.2399 26.3C71.6532 27.0733 71.8599 27.96 71.8599 28.96C71.8599 29.9733 71.6465 30.8733 71.2199 31.66C70.8066 32.4333 70.2265 33.04 69.4799 33.48C68.7332 33.92 67.8599 34.14 66.8599 34.14ZM66.8599 32.38C67.4599 32.38 67.9732 32.24 68.3999 31.96C68.8399 31.68 69.1799 31.2867 69.4199 30.78C69.6599 30.26 69.7799 29.6533 69.7799 28.96C69.7799 28.2667 69.6599 27.6667 69.4199 27.16C69.1932 26.6533 68.8599 26.26 68.4199 25.98C67.9799 25.7 67.4599 25.56 66.8599 25.56C66.2732 25.56 65.7532 25.7 65.2999 25.98C64.8599 26.26 64.5132 26.6533 64.2599 27.16C64.0199 27.6667 63.8999 28.2667 63.8999 28.96C63.8999 29.6533 64.0199 30.26 64.2599 30.78C64.5132 31.2867 64.8599 31.68 65.2999 31.96C65.7532 32.24 66.2732 32.38 66.8599 32.38ZM74.5935 34V20H80.6135C81.6401 20 82.5201 20.18 83.2535 20.54C83.9868 20.9 84.5468 21.42 84.9335 22.1C85.3201 22.78 85.5135 23.6067 85.5135 24.58C85.5135 25.5533 85.3135 26.4 84.9135 27.12C84.5135 27.8267 83.9468 28.3733 83.2135 28.76C82.4801 29.1467 81.6135 29.34 80.6135 29.34H76.6935L76.7135 34H74.5935ZM76.7135 27.46H80.3535C81.3001 27.46 82.0335 27.2267 82.5535 26.76C83.0735 26.28 83.3335 25.5667 83.3335 24.62C83.3335 23.6467 83.0735 22.9467 82.5535 22.52C82.0335 22.0933 81.3001 21.88 80.3535 21.88H76.7135V27.46ZM89.6455 34.14C89.1122 34.14 88.5988 34.04 88.1055 33.84C87.6122 33.64 87.2055 33.3333 86.8855 32.92C86.5788 32.5067 86.4255 31.98 86.4255 31.34C86.4255 30.5133 86.6855 29.8667 87.2055 29.4C87.7255 28.92 88.4588 28.58 89.4055 28.38L92.7855 27.62V27.56C92.7855 26.8533 92.5788 26.3467 92.1655 26.04C91.7522 25.72 91.1522 25.56 90.3655 25.56C89.9255 25.56 89.4788 25.5933 89.0255 25.66C88.5722 25.7267 88.1588 25.8067 87.7855 25.9L87.3055 26.02L86.9455 24.68L87.4455 24.5C88.0588 24.26 88.6455 24.08 89.2055 23.96C89.7788 23.84 90.3455 23.78 90.9055 23.78C92.0655 23.78 93.0055 24.0867 93.7255 24.7C94.4455 25.3133 94.8055 26.2533 94.8055 27.52V31.54C94.8055 31.9667 94.9055 32.26 95.1055 32.42C95.3055 32.5667 95.7322 32.66 96.3855 32.7L96.2855 34.04C96.1522 34.08 96.0055 34.1067 95.8455 34.12C95.6988 34.1333 95.5655 34.14 95.4455 34.14C94.7655 34.14 94.2322 33.9933 93.8455 33.7C93.4722 33.3933 93.2122 33.0133 93.0655 32.56L92.6055 32.96C92.1522 33.36 91.6655 33.66 91.1455 33.86C90.6255 34.0467 90.1255 34.14 89.6455 34.14ZM90.2855 32.44C90.5922 32.44 90.9122 32.38 91.2455 32.26C91.5788 32.1267 91.9188 31.94 92.2655 31.7L92.7855 31.34V28.86L89.7255 29.7C89.2322 29.8467 88.8855 30.0333 88.6855 30.26C88.4988 30.4867 88.4055 30.7667 88.4055 31.1C88.4055 31.5267 88.5722 31.86 88.9055 32.1C89.2388 32.3267 89.6988 32.44 90.2855 32.44ZM98.0635 34V23.94H99.6235L99.7835 25L100.483 24.62C100.99 24.3533 101.497 24.1467 102.003 24C102.51 23.8533 103.01 23.78 103.503 23.78C104.29 23.78 104.93 23.9267 105.423 24.22C105.93 24.5133 106.303 24.9133 106.543 25.42C106.797 25.9267 106.923 26.5133 106.923 27.18V34H104.903V27.66C104.903 26.9933 104.73 26.4933 104.383 26.16C104.037 25.8133 103.497 25.64 102.763 25.64C102.457 25.64 102.15 25.68 101.843 25.76C101.537 25.84 101.21 25.96 100.863 26.12L100.103 26.46V34H98.0635ZM114.602 34.14C113.629 34.14 112.736 33.9467 111.922 33.56C111.122 33.16 110.476 32.58 109.982 31.82C109.489 31.0467 109.242 30.1 109.242 28.98C109.242 28.22 109.369 27.52 109.622 26.88C109.876 26.24 110.236 25.6933 110.702 25.24C111.169 24.7733 111.702 24.4133 112.302 24.16C112.902 23.9067 113.556 23.78 114.262 23.78C115.262 23.78 116.096 24 116.762 24.44C117.442 24.88 117.949 25.48 118.282 26.24C118.629 26.9867 118.802 27.8333 118.802 28.78V29.44H111.342C111.422 30.0933 111.616 30.64 111.922 31.08C112.242 31.5067 112.649 31.8267 113.142 32.04C113.636 32.2533 114.182 32.36 114.782 32.36C115.156 32.36 115.536 32.3267 115.922 32.26C116.309 32.1933 116.702 32.1067 117.102 32L117.962 31.72L118.522 33.06L117.742 33.44C117.236 33.6667 116.709 33.84 116.162 33.96C115.629 34.08 115.109 34.14 114.602 34.14ZM111.422 27.94H116.862C116.769 27.1933 116.502 26.6067 116.062 26.18C115.636 25.74 115.036 25.52 114.262 25.52C113.782 25.52 113.342 25.62 112.942 25.82C112.556 26.0067 112.229 26.2867 111.962 26.66C111.709 27.02 111.529 27.4467 111.422 27.94ZM123.671 34.14C122.724 34.14 122.037 33.9333 121.611 33.52C121.197 33.0933 120.991 32.5133 120.991 31.78V19.24L123.031 18.6V31.32C123.031 31.6667 123.124 31.9267 123.311 32.1C123.497 32.2733 123.817 32.36 124.271 32.36C124.391 32.36 124.517 32.36 124.651 32.36C124.797 32.3467 124.951 32.3333 125.111 32.32L125.071 33.88C124.844 33.9733 124.604 34.04 124.351 34.08C124.111 34.12 123.884 34.14 123.671 34.14Z" fill="black"/>
</g>
<defs>
<filter id="filter0_d_159_72" x="0" y="0" width="165.888" height="64.272" filterUnits="userSpaceOnUse" color-interpolation-filters="sRGB">
<feFlood flood-opacity="0" result="BackgroundImageFix"/>
<feColorMatrix in="SourceAlpha" type="matrix" values="0 0 0 0 0 0 0 0 0 0 0 0 0 0 0 0 0 0 127 0" result="hardAlpha"/>
<feOffset dy="4"/>
<feGaussianBlur stdDeviation="2"/>
<feComposite in2="hardAlpha" operator="out"/>
<feColorMatrix type="matrix" values="0 0 0 0 0 0 0 0 0 0 0 0 0 0 0 0 0 0 0.25 0"/>
<feBlend mode="normal" in2="BackgroundImageFix" result="effect1_dropShadow_159_72"/>
<feBlend mode="normal" in="SourceGraphic" in2="effect1_dropShadow_159_72" result="shape"/>
</filter>
</defs>
</svg>
